<svg width="52" height="54" viewBox="0 0 52 54" fill="none" xmlns="http://www.w3.org/2000/svg">
<path d="M51.5 27.3913V27.3919C51.5 35.3431 48.7148 42.0422 43.9101 46.5937H36.0567V40.6623C37.3994 39.7216 38.5513 38.5293 39.4495 37.1497C40.3967 35.6947 41.0421 34.0614 41.3471 32.3483L41.4516 31.7606H40.8548H27.0263V22.4467H51.1182C51.3743 24.0819 51.502 25.7353 51.5 27.3913Z" fill="#4285F4" stroke="black"/>
<path d="M35.5327 41.0194L43.3328 47.1261C39.0784 50.8823 33.336 53.0625 26.5263 53.0625C21.7029 53.0623 16.9741 51.7087 12.8679 49.1524C8.79454 46.6166 5.49265 42.9962 3.3248 38.6894V32.408H11.277C13.5341 38.7659 19.498 43.4621 26.5263 43.4621C30.0482 43.4621 33.1057 42.5854 35.5327 41.0194Z" fill="#34A853" stroke="black"/>
<path d="M11.134 15.2567V21.5756C10.0521 24.8696 10.0245 28.4213 11.0512 31.7284L3.00483 38.0304C1.35667 34.5167 0.5 30.6749 0.5 26.7816C0.5 22.7861 1.40227 18.8448 3.13634 15.2567H11.134Z" fill="#FBBC04" stroke="black"/>
<path d="M26.5263 0.501757V0.501791L26.5322 0.501722C32.818 0.427607 38.8946 2.74815 43.5553 6.99058L36.6885 13.9228C33.9008 11.4099 30.2726 10.0413 26.5222 10.1021C19.615 10.1039 13.7364 14.6415 11.3951 20.834L3.45664 14.6165C5.62545 10.4232 8.87626 6.89673 12.8679 4.41183C16.9741 1.85556 21.7029 0.501979 26.5263 0.501757Z" fill="#EA4335" stroke="black"/>
</svg>
